<svg width="65" height="33" viewBox="0 0 65 33" fill="none" xmlns="http://www.w3.org/2000/svg">
<circle cx="16.5" cy="16.5" r="16.5" fill="#E20000"/>
<path d="M32.5 -7.21238e-07C34.6668 -8.15952e-07 36.8124 0.426784 38.8143 1.25599C40.8161 2.08519 42.6351 3.30057 44.1673 4.83274C45.6994 6.3649 46.9148 8.18385 47.744 10.1857C48.5732 12.1876 49 14.3332 49 16.5C49 18.6668 48.5732 20.8124 47.744 22.8143C46.9148 24.8161 45.6994 26.6351 44.1673 28.1673C42.6351 29.6994 40.8161 30.9148 38.8143 31.744C36.8124 32.5732 34.6668 33 32.5 33L32.5 16.5L32.5 -7.21238e-07Z" fill="#3E4095"/>
<path d="M48.5 -7.21238e-07C50.6668 -8.15952e-07 52.8124 0.426784 54.8143 1.25599C56.8161 2.08519 58.6351 3.30057 60.1673 4.83274C61.6994 6.3649 62.9148 8.18385 63.744 10.1857C64.5732 12.1876 65 14.3332 65 16.5C65 18.6668 64.5732 20.8124 63.744 22.8143C62.9148 24.8161 61.6994 26.6351 60.1673 28.1673C58.6351 29.6994 56.8161 30.9148 54.8143 31.744C52.8124 32.5732 50.6668 33 48.5 33L48.5 16.5L48.5 -7.21238e-07Z" fill="#3E4095"/>
</svg>
