<svg width="31" height="31" viewBox="0 0 31 31" fill="none" xmlns="http://www.w3.org/2000/svg">
<rect width="31" height="31" rx="15.5" fill="#E20000"/>
<g clip-path="url(#clip0_21_7)">
<path d="M15.1219 13.2318C14.5204 13.2318 13.9434 13.4708 13.518 13.8962C13.0926 14.3215 12.8537 14.8985 12.8537 15.5001C12.8537 16.1017 13.0926 16.6786 13.518 17.104C13.9434 17.5294 14.5204 17.7684 15.1219 17.7684C15.7235 17.7684 16.3005 17.5294 16.7259 17.104C17.1513 16.6786 17.3902 16.1017 17.3902 15.5001C17.3902 14.8985 17.1513 14.3215 16.7259 13.8962C16.3005 13.4708 15.7235 13.2318 15.1219 13.2318ZM15.1219 19.2806C14.1193 19.2806 13.1577 18.8823 12.4487 18.1733C11.7398 17.4643 11.3415 16.5027 11.3415 15.5001C11.3415 14.4974 11.7398 13.5358 12.4487 12.8269C13.1577 12.1179 14.1193 11.7196 15.1219 11.7196C16.1246 11.7196 17.0862 12.1179 17.7952 12.8269C18.5041 13.5358 18.9024 14.4974 18.9024 15.5001C18.9024 16.5027 18.5041 17.4643 17.7952 18.1733C17.0862 18.8823 16.1246 19.2806 15.1219 19.2806ZM15.1219 9.82935C11.3415 9.82935 8.11292 12.1808 6.80487 15.5001C8.11292 18.8193 11.3415 21.1708 15.1219 21.1708C18.9024 21.1708 22.131 18.8193 23.439 15.5001C22.131 12.1808 18.9024 9.82935 15.1219 9.82935Z" fill="white"/>
</g>
<defs>
<clipPath id="clip0_21_7">
<rect width="18.1463" height="18.1463" fill="white" transform="translate(6.04877 6.42688)"/>
</clipPath>
</defs>
</svg>
