<svg width="31" height="31" viewBox="0 0 31 31" fill="none" xmlns="http://www.w3.org/2000/svg">
<rect width="31" height="31" rx="15.5" fill="#E20000"/>
<path d="M17.98 18.4034C17.98 18.4034 20.1424 16.2561 20.8759 15.5C23.1971 13.2317 22.0402 8.55902 22.0402 8.55902C22.0402 8.55902 17.3902 7.40219 15.1219 9.72341C13.3527 11.4473 12.2034 12.6419 12.2034 12.6419C12.2034 12.6419 9.3 12.0371 7.56097 13.7761L16.8232 23.061C18.5622 21.2993 17.98 18.4034 17.98 18.4034ZM16.8459 11.5985C16.9863 11.4579 17.1531 11.3464 17.3366 11.2703C17.5202 11.1942 17.717 11.155 17.9157 11.155C18.1145 11.155 18.3112 11.1942 18.4948 11.2703C18.6784 11.3464 18.8452 11.4579 18.9856 11.5985C19.1969 11.8101 19.3408 12.0795 19.399 12.3728C19.4572 12.6661 19.4272 12.9701 19.3127 13.2463C19.1982 13.5225 19.0043 13.7586 18.7557 13.9247C18.507 14.0908 18.2147 14.1794 17.9157 14.1794C17.6167 14.1794 17.3244 14.0908 17.0758 13.9247C16.8271 13.7586 16.6333 13.5225 16.5188 13.2463C16.4043 12.9701 16.3743 12.6661 16.4325 12.3728C16.4907 12.0795 16.6345 11.8101 16.8459 11.5985ZM8.31707 22.3049C9.7168 22.2656 11.0569 21.7296 12.0976 20.7927L9.82927 18.5244C8.31707 19.2805 8.31707 22.3049 8.31707 22.3049Z" fill="white"/>
</svg>
