<svg width="84" height="84" viewBox="0 0 84 84" fill="none" xmlns="http://www.w3.org/2000/svg">
<path d="M42.882 64.771C45.0972 64.6196 47.2938 64.2658 49.4445 63.714C52.1009 64.5125 54.9046 64.6933 57.6415 64.2425C57.7507 64.2292 57.8605 64.221 57.9705 64.218C58.947 64.218 60.228 64.778 62.097 65.9575V64.0185C62.0978 63.6807 62.1891 63.3493 62.3615 63.0588C62.5338 62.7682 62.7809 62.5292 63.077 62.3665C63.8913 61.9069 64.6438 61.39 65.3345 60.816C68.0575 58.541 69.594 55.503 69.594 52.29C69.594 51.2295 69.426 50.1725 69.0935 49.1645C69.9168 47.6528 70.5784 46.0585 71.0675 44.408C72.6425 46.7355 73.4895 49.483 73.5 52.29C73.5 56.658 71.442 60.732 67.8755 63.7105C67.2782 64.2075 66.654 64.6649 66.003 65.0825V69.6255C66.003 71.1865 64.176 72.086 62.888 71.155C61.6676 70.257 60.4063 69.4161 59.108 68.635C58.7329 68.4188 58.3449 68.2259 57.946 68.0575C56.8625 68.2179 55.7688 68.2987 54.6735 68.299C50.2285 68.299 46.1195 66.9795 42.882 64.771ZM19.3585 55.6885C13.7445 50.988 10.5 44.5795 10.5 37.7125C10.5 23.6845 23.912 12.467 40.2885 12.467C56.6685 12.467 70.084 23.681 70.084 37.7125C70.084 51.744 56.6685 62.9545 40.2885 62.9545C38.4662 62.9564 36.6465 62.816 34.846 62.5345C34.076 62.713 30.989 64.5225 26.544 67.725C24.934 68.887 22.652 67.767 22.652 65.8105V58.065C21.4992 57.3524 20.3996 56.557 19.362 55.685M34.9545 57.757C35.0898 57.757 35.2263 57.7675 35.364 57.7885C36.974 58.0545 38.6155 58.1887 40.2885 58.191C54.124 58.191 65.1945 48.9335 65.1945 37.709C65.1945 26.488 54.124 17.234 40.292 17.234C26.46 17.234 15.3825 26.488 15.3825 37.709C15.3825 43.134 17.9725 48.244 22.5435 52.0695C23.6962 53.0309 24.9515 53.8942 26.3095 54.6595C26.6779 54.864 26.9854 55.1625 27.2006 55.5247C27.4158 55.8869 27.531 56.2997 27.5345 56.721V61.187C31.052 58.8595 33.3655 57.757 34.9545 57.757Z" fill="url(#paint0_linear_27_198)"/>
<path d="M28.217 42C29.2613 42 30.2628 41.5852 31.0012 40.8467C31.7397 40.1083 32.1545 39.1068 32.1545 38.0625C32.1545 37.0182 31.7397 36.0167 31.0012 35.2783C30.2628 34.5398 29.2613 34.125 28.217 34.125C27.1727 34.125 26.1712 34.5398 25.4328 35.2783C24.6943 36.0167 24.2795 37.0182 24.2795 38.0625C24.2795 39.1068 24.6943 40.1083 25.4328 40.8467C26.1712 41.5852 27.1727 42 28.217 42Z" fill="url(#paint1_linear_27_198)"/>
<path d="M41.0165 42C42.0608 42 43.0623 41.5852 43.8007 40.8467C44.5392 40.1083 44.954 39.1068 44.954 38.0625C44.954 37.0182 44.5392 36.0167 43.8007 35.2783C43.0623 34.5398 42.0608 34.125 41.0165 34.125C39.9722 34.125 38.9707 34.5398 38.2323 35.2783C37.4938 36.0167 37.079 37.0182 37.079 38.0625C37.079 39.1068 37.4938 40.1083 38.2323 40.8467C38.9707 41.5852 39.9722 42 41.0165 42Z" fill="url(#paint2_linear_27_198)"/>
<path d="M53.8125 42C54.8568 42 55.8583 41.5852 56.5967 40.8467C57.3352 40.1083 57.75 39.1068 57.75 38.0625C57.75 37.0182 57.3352 36.0167 56.5967 35.2783C55.8583 34.5398 54.8568 34.125 53.8125 34.125C52.7682 34.125 51.7667 34.5398 51.0283 35.2783C50.2898 36.0167 49.875 37.0182 49.875 38.0625C49.875 39.1068 50.2898 40.1083 51.0283 40.8467C51.7667 41.5852 52.7682 42 53.8125 42Z" fill="url(#paint3_linear_27_198)"/>
<defs>
<linearGradient id="paint0_linear_27_198" x1="42" y1="12.467" x2="42" y2="71.533" gradientUnits="userSpaceOnUse">
<stop stop-color="#1BC9FA"/>
<stop offset="1" stop-color="#1778F0"/>
</linearGradient>
<linearGradient id="paint1_linear_27_198" x1="42" y1="12.467" x2="42" y2="71.533" gradientUnits="userSpaceOnUse">
<stop stop-color="#1BC9FA"/>
<stop offset="1" stop-color="#1778F0"/>
</linearGradient>
<linearGradient id="paint2_linear_27_198" x1="42" y1="12.467" x2="42" y2="71.533" gradientUnits="userSpaceOnUse">
<stop stop-color="#1BC9FA"/>
<stop offset="1" stop-color="#1778F0"/>
</linearGradient>
<linearGradient id="paint3_linear_27_198" x1="42" y1="12.4635" x2="42" y2="71.5295" gradientUnits="userSpaceOnUse">
<stop stop-color="#1BC9FA"/>
<stop offset="1" stop-color="#1778F0"/>
</linearGradient>
</defs>
</svg>
